<?xml version="1.0" encoding="UTF-8"?>
<svg id="katman_2" data-name="katman 2" xmlns="http://www.w3.org/2000/svg" viewBox="0 0 1934.2 259.57">
  <defs>
    <style>
      .cls-1 {
        fill: #872d26;
      }

      .cls-2 {
        fill: #2b1a1c;
      }

      .cls-3 {
        fill: #2c1d1b;
      }
    </style>
  </defs>
  <g id="katman_1" data-name="katman 1">
    <g>
      <g>
        <path class="cls-3" d="M1272.69,84.4c38.49-16.73,36.05-67.64-1.15-80.31-17.49-5.96-54.3-3.67-73.43-3.6v126.07s18.31,0,18.31,0l-.03-38.36c12.9-.02,26.15.11,39.02-.1,3.51,5.01,24.42,37.65,28.89,38.47,1.3.24,2.97.03,4.3-.02l13.9-.03-29.81-42.14ZM1216.34,72.69c.26-18.63.07-37.72.1-56.39,17.62-.13,47.09-3.56,59.32,9.94,10.59,11.7,7.31,29.91-3.91,40.12-14.97,9.01-37.63,6.45-55.51,6.33Z"/>
        <path class="cls-3" d="M513.23.43l17.37.06-5.26,15.33-36.89,110.73-19.26.02c-11.17-32.71-22.36-67.67-34.34-99.91l-34.2,99.9-19.4.02c-14.46-40.97-28.44-84.72-42.24-126.08l18.8.03,33.89,101.95c12.15-33.45,23.69-68.3,35.47-102.03l16.78.04,34.51,102.47c11.95-33.9,23.04-68.47,34.77-102.51Z"/>
        <g>
          <path class="cls-1" d="M1379.72.13l37.83-.02c-.13,16.15-.09,32.3.11,48.45,13.59-16.16,28.01-32.42,41.87-48.4h43.58c-15.14,17.2-30.39,34.33-45.74,51.36l31,47.56,17.77,27.52h-45.13c-9.9-15.12-19.68-30.89-29.4-46.16-4.55,5.35-9.44,10.73-14.11,16.01l.09,30.11h-37.85s0-126.43,0-126.43Z"/>
          <path class="cls-1" d="M1881.97.1h-38.69s-53.98,126.45-53.98,126.45h38.91s7.5-20.21,7.5-20.21h45.66c2.54.08,4.07-.43,5.4,1.62,3.26,5.04,4.99,12.97,7.11,18.6l40.32-.05L1881.97.1ZM1864.18,78.86l-17.95-.02c4.83-13.17,9.81-26.28,14.94-39.33,2.57,2.25,13.37,33.76,15.38,39.31l-12.37.04Z"/>
          <path class="cls-1" d="M1627.34,42.59c-5.1-12.38-12.03-30.71-17.58-42.46l-38.85.03c-16.09,40.09-36.26,86.85-53.88,126.39l39.01-.02c2.44-6.77,4.93-13.51,7.49-20.23l46.73.02c1.72.09,2.84-.24,3.55.75,3.6,5.06,5.64,13.64,7.87,19.5l40.22-.06-34.57-83.93ZM1589.37,78.86l-15.34-.02,15.06-40.03c3.17,5.42,12.49,32.48,15.27,40.01l-15,.04Z"/>
          <path class="cls-1" d="M1752.67.1l37.48.12c-8.23,16.54-17.73,33.88-26.41,50.25-4.54,9.06-14.65,26.47-17.59,34.69-2.29,6.4-1.25,32.94-1.15,41.35l-37.89.06c-.04-8.34.8-30.97-.5-38.14-.99-5.46-13.18-27.15-16.6-33.56L1660.67.11l37.97.03,27.45,51.26L1752.67.1Z"/>
        </g>
        <path class="cls-3" d="M600.6.49c28.73-.59,60.3,0,89.23.02l.03,15.8h-70.94s.02,38.4.02,38.4l63.13-.03v15.67s-60,0-60,0l-2.23.36c-1.8,3.42-.95,34.02-.9,40.08h73.53s0,15.77,0,15.77l-91.89.02.03-126.08Z"/>
        <path class="cls-3" d="M1029.24.44l89.12.06v15.8l-70.96-.02-.02,38.4h63.18s-.01,15.69-.01,15.69l-59.58-.03c-2.12.09-1.17-.29-2.95.85-1.44,5.47-.72,31.94-.64,39.59l73.45-.03.05,15.8-91.67.03.03-126.13Z"/>
        <path class="cls-3" d="M160.49.42l18.12.07-.07,48.25c-.07,26.96-3.9,62.72,34.45,63.13,40.02.43,36.67-34.48,36.65-63.1l-.04-48.34,17.45.06-.04,16.21.08,37.27c.03,20.79,1.77,42.05-13.15,58.85-10.2,11.22-23.24,14.58-37.57,15.23-26.09,1.18-48.1-10.72-54-37.71-2.93-13.4-1.99-27.3-1.97-41.1l.1-48.82Z"/>
        <path class="cls-3" d="M12.91.46l63.74.02-.03,57.95c.04,12.51.49,24.97-.79,37.42-3.46,33.5-39.52,39.38-64.32,25.06-5.52-3.75-7.46-6.05-11.51-11.06l10.48-12.39c.93,1.09,1.87,2.17,2.83,3.24,13.38,14.9,39.44,18.71,44.23-5.61,1.68-8.51.89-20.37.88-29.31l-.12-49.48H12.88s.03-15.85.03-15.85Z"/>
        <path class="cls-3" d="M769.68.45l18.17.05v110.29s68.3,0,68.3,0l.05,15.77h-86.59c.49-41.71.06-84.31.07-126.1Z"/>
        <path class="cls-3" d="M925.14.44l18.14.03.03,126.05-18.23.05.06-126.14Z"/>
      </g>
      <g>
        <path class="cls-2" d="M817.71,191.12h8.3v38.59l35.48-38.59h9.63l-26.7,29.85,28.85,37.63h-10.59l-23.26-31.48-13.26,13.41v18.07h-8.44s-.03-67.46,0-67.48Z"/>
        <path class="cls-2" d="M995.84,191.29h8.06v60h28.94v7h-37s0-67.22,0-67Z"/>
        <polygon class="cls-2" points="1063.92 258.27 1063.92 191.29 1071.73 191.29 1110.29 244.16 1111.84 244.16 1111.84 191.29 1118.84 191.29 1118.84 258.27 1111.18 258.27 1072.51 205.27 1070.73 205.27 1070.73 258.27 1063.92 258.27"/>
        <path class="cls-2" d="M928.77,190.83c-19.41,0-35.14,15.39-35.14,34.37s15.73,34.37,35.14,34.37,35.14-15.39,35.14-34.37-15.73-34.37-35.14-34.37ZM928.77,251.42c-14.81,0-26.81-11.74-26.81-26.22s12-26.22,26.81-26.22,26.81,11.74,26.81,26.22-12,26.22-26.81,26.22Z"/>
        <circle class="cls-2" cx="765.29" cy="221.71" r="6.22"/>
        <circle class="cls-2" cx="1168.91" cy="221.71" r="6.22"/>
      </g>
    </g>
  </g>
</svg>